<?xml version="1.0" encoding="UTF-8" standalone="no"?>
<svg
   xmlns:dc="http://purl.org/dc/elements/1.1/"
   xmlns:cc="http://creativecommons.org/ns#"
   xmlns:rdf="http://www.w3.org/1999/02/22-rdf-syntax-ns#"
   xmlns:svg="http://www.w3.org/2000/svg"
   xmlns="http://www.w3.org/2000/svg"
   xmlns:sodipodi="http://sodipodi.sourceforge.net/DTD/sodipodi-0.dtd"
   xmlns:inkscape="http://www.inkscape.org/namespaces/inkscape"
   class="logo"
   viewBox="0 0 47 15"
   version="1.1"
   id="svg4"
   sodipodi:docname="logo.svg"
   inkscape:version="0.92.3 (2405546, 2018-03-11)">
  <metadata
     id="metadata10">
    <rdf:RDF>
      <cc:Work
         rdf:about="">
        <dc:format>image/svg+xml</dc:format>
        <dc:type
           rdf:resource="http://purl.org/dc/dcmitype/StillImage" />
      </cc:Work>
    </rdf:RDF>
  </metadata>
  <defs
     id="defs8" />
  <sodipodi:namedview
     pagecolor="#ffffff"
     bordercolor="#666666"
     borderopacity="1"
     objecttolerance="10"
     gridtolerance="10"
     guidetolerance="10"
     inkscape:pageopacity="0"
     inkscape:pageshadow="2"
     inkscape:window-width="640"
     inkscape:window-height="480"
     id="namedview6"
     showgrid="false"
     inkscape:zoom="5.6382979"
     inkscape:cx="22.099582"
     inkscape:cy="12.169944"
     inkscape:window-x="447"
     inkscape:window-y="178"
     inkscape:window-maximized="0"
     inkscape:current-layer="logo" />
  <g
     id="logo"
     transform="translate(-113.000000, -89.000000)">
    <path
       id="Sleek"
       transform="translate(113,89)"
       d="m 12.097656,0.82421875 v 0.0449219 c 0.02627,-0.0205661 0.0603,-0.0371015 0.113282,-0.0449219 z m 0,0.46679685 v 0.058594 c 0.0046,-1.48e-5 0.0091,3.22e-5 0.01367,0 -0.004,-0.016631 -0.0095,-0.041053 -0.01367,-0.058594 z M 3.7773438,1.6699219 c 0.00258,0.031936 0.00556,0.063916 0.00781,0.095703 0.016342,0.010938 0.049564,0.03082 0.064453,0.041016 -0.023648,-0.04604 -0.053288,-0.1021998 -0.070312,-0.1367187 z m 0.048828,2.15625 c 0.018712,0.023832 0.023126,0.03171 0.041016,0.054687 0.00946,-0.018829 0.020486,-0.036661 0.03125,-0.054687 -0.024095,-4.9e-6 -0.048167,3.7e-6 -0.072266,0 z M 3.7148438,4.0878906 c 0.013882,0.093849 0.010976,0.2202756 0.011719,0.359375 0.00975,-0.1252178 0.026919,-0.2456169 0.060547,-0.3554687 -0.025225,-0.00187 -0.046558,-0.00153 -0.072266,-0.00391 z M 43.322266,5.9589844 c -0.0023,0.00296 -0.0035,0.00508 -0.0078,0.00977 0.0074,-0.00403 0.01158,-0.00723 0.01563,-0.00977 -0.0021,-2.42e-5 -0.0057,1.9e-5 -0.0078,0 z M 4.3613281,6.2011719 c 0.00212,0.039216 0.00547,0.07801 0.00781,0.1171875 0.00793,-0.040894 0.00974,-0.072432 0.00977,-0.1054688 -0.00589,-0.00388 -0.011618,-0.00793 -0.017578,-0.011719 z M 7.0195312,7.328125 c -0.038432,-0.021232 -0.093147,-0.00172 -0.1484374,0.019531 0.059204,0.00356 0.1422701,0.00915 0.1679687,0.00781 -0.00708,-0.00761 -0.011197,-0.022739 -0.019531,-0.027344 z M 33.376953,7.375 c -0.01065,0.00973 -0.01496,0.00966 -0.02148,0.015625 -0.0056,0.00513 -0.01008,0.018885 -0.01563,0.025391 0.0027,0.00554 0.0072,0.010058 0.0098,0.015625 0.0018,0.00389 0.0018,0.0099 0.002,0.015625 0.01134,-0.023962 0.02275,-0.047875 0.0332,-0.072266 z m -0.04883,0.0625 c -0.0019,0.00261 -0.002,0.00703 -0.0039,0.00977 0.0065,0.00515 0.0129,0.010586 0.01953,0.015625 10e-4,-0.00209 0.0029,-0.00376 0.0039,-0.00586 6.08e-4,-5.66e-4 -0.01889,-0.017942 -0.01953,-0.019531 z m 0.002,0.052734 c -0.0068,-0.00516 -0.02293,0.0039 -0.0332,0.00391 -0.0075,0.013858 -0.01467,0.024294 -0.02148,0.039063 0.0082,0.00294 0.01915,0.00888 0.0293,0.013672 0.0087,-0.018757 0.01644,-0.03799 0.02539,-0.056641 z m -0.08984,0.1132812 c -0.0246,0.068655 -0.04249,0.1314903 -0.03516,0.1367188 0.0023,0.0043 0.0036,0.00935 0.0059,0.013672 0.01876,-0.035494 0.03479,-0.072448 0.05078,-0.109375 -0.0075,-0.013848 -0.01673,-0.029424 -0.02148,-0.041016 z M 4.3710938,7.9921875 C 4.3651338,8.0033735 4.4143242,8.050832 4.3945312,8 4.3854612,7.99635 4.3724178,7.9896965 4.3710938,7.9921875 Z M 38.339844,8.9179688 c -0.0038,0.00157 -0.0079,0.00237 -0.01172,0.00391 2.4e-4,-2.01e-4 -0.02024,0.016184 -0.01953,0.015625 v 0.00391 c 0.01375,-0.01035 0.01731,-0.012993 0.03125,-0.023437 z M 12.423828,9.3378906 c -0.01127,0.00281 -0.0245,0.00717 -0.03516,0.00977 -0.0018,0.0075 -0.0048,0.014567 -0.0078,0.021484 0.0095,-0.00627 0.03347,-0.024974 0.04297,-0.03125 z m -0.193359,0.046875 c -0.0018,3.523e-4 -0.006,0.00161 -0.0078,0.00195 2.6e-4,0.0077 0.0038,0.00927 0.0039,0.017578 0.0011,-0.00662 0.0028,-0.012913 0.0039,-0.019531 z M 2.7714844,12.117188 c -0.00708,0.0085 -0.015604,0.01771 -0.023437,0.02734 0.00341,1.12e-4 0.00632,-1.45e-4 0.00977,0 0.00447,-0.0087 0.0089,-0.01821 0.013672,-0.02734 z M 1.78125,12.550781 c -0.00787,0.01333 -0.02118,0.02324 -0.027344,0.03516 0.017219,-0.01012 0.024603,-0.01562 0.041016,-0.02539 -0.00542,-0.0037 -0.00839,-0.0062 -0.013672,-0.0098 z m 18.751953,0.853516 c -0.009,0.02026 -0.01821,0.04037 -0.02734,0.06055 0.0085,0.01118 0.01572,0.02338 0.02344,0.03516 0.02426,0.02896 0.02794,0.03 0.05078,0.05664 0.0038,-0.05151 0.005,-0.104929 0.01563,-0.152344 z M 3.4960938,13.613281 c -0.00243,0.102851 -0.00659,0.178124 -0.00977,0.289063 0.00456,-0.0015 0.0091,-0.0024 0.013672,-0.0039 -0.00151,-0.08798 -0.00162,-0.132354 -0.00391,-0.285157 z M 3.5,13.898438 c 3.73e-4,0.0217 0.00163,0.05221 0.00195,0.07031 3.705e-4,-0.02151 -3.238e-4,-0.05238 0,-0.07031 z m -0.013672,0.0039 c -0.00138,4.39e-4 -0.00253,0.0015 -0.00391,0.002 5.203e-4,0.01734 0.00145,0.02763 0.00195,0.04492 5.354e-4,-0.01806 0.00144,-0.02888 0.00195,-0.04687 z m -0.00195,0.04687 c -4.908e-4,0.01656 -0.0015,0.02652 -0.00195,0.04297 0.00135,4.27e-4 0.00255,0.0015 0.00391,0.002 -5.333e-4,-0.01606 -0.00145,-0.02763 -0.00195,-0.04492 z m 42.082031,-0.322266 c -0.01992,-8.87e-4 -0.03894,0.0065 -0.05859,0.0078 0.0085,0.0058 0.01684,0.01181 0.02539,0.01758 0.01221,-0.009 0.02144,-0.01658 0.0332,-0.02539 z m -0.0332,0.02539 c -0.04657,0.03423 -0.08216,0.06066 -0.128906,0.09375 5.91e-4,0.051 -0.0018,0.09946 -0.0039,0.148437 0.0065,0.02069 0.01304,0.03969 0.01953,0.06055 0.0072,0.0037 0.01407,0.0082 0.02148,0.01172 0.07891,-0.02749 0.150476,-0.05162 0.222656,-0.07617 0.01983,-0.01144 0.03663,-0.02578 0.05664,-0.03711 -0.004,-0.01821 -0.008,-0.03639 -0.01172,-0.05469 -0.03176,-0.02471 -0.06215,-0.05097 -0.08594,-0.08594 -0.0301,-0.02013 -0.05985,-0.0403 -0.08984,-0.06055 z m 0.08984,0.06055 c 0.02138,0.0143 0.04116,0.03057 0.0625,0.04492 -0.02153,-0.037 -0.03974,-0.07272 -0.06445,-0.109374 -0.01492,-0.0039 -0.03548,-0.02074 -0.04883,-0.02149 -0.0013,-7.3e-5 -0.0026,6.3e-5 -0.0039,0 0.01679,0.03077 0.03576,0.05811 0.05469,0.08594 z m -26.0625,0.25 c -0.0029,0.0038 -0.0049,0.0079 -0.0078,0.01172 0.0093,0.0021 0.01835,0.005 0.02734,0.0078 -0.0062,-0.0059 -0.01206,-0.01267 -0.01953,-0.01953 z" />
    <text
       xml:space="preserve"
       style="font-style:normal;font-weight:normal;font-size:14.28978062px;line-height:1.25;font-family:sans-serif;letter-spacing:0px;word-spacing:0px;fill:#000000;fill-opacity:1;stroke:none;stroke-width:0.35724449"
       x="118.20216"
       y="98.931808"
       id="text11"
       transform="scale(0.96607434,1.035117)"><tspan
         sodipodi:role="line"
         id="tspan9"
         x="118.20216"
         y="98.931808"
         style="font-weight:bold;stroke-width:0.35724449">Ashar</tspan></text>
  </g>
</svg>
